<?xml version="1.0" encoding="UTF-8"?>
<svg width="512" height="512" viewBox="0 0 512 512" version="1.1" xmlns="http://www.w3.org/2000/svg" xmlns:xlink="http://www.w3.org/1999/xlink">
    <g id="goose-shape" stroke="none" stroke-width="1" fill="none" fill-rule="evenodd">
        <rect id="bg" fill="#FFFFFF" x="0" y="0" width="512" height="512" fill-opacity="0"></rect>
        <path id="shape" d="M415.063237,175.732567 C415.063237,175.732567 424.828121,181.905122 399.90197,206.209559 C399.90197,206.209559 392.706792,239.00126 346.066622,270.121227 C346.066622,270.121227 351.976947,273.07891 357.887271,270.121227 C357.887271,270.121227 340.284783,284.138071 309.448307,297.254752 C276.941522,311.785976 300.068879,328.760503 311.375587,336.861982 C322.553809,344.834867 352.619374,361.937989 372.020656,360.266255 C372.020656,360.266255 368.294582,363.738318 363.797596,364.124102 C363.797596,364.124102 373.690965,372.868556 382.813423,373.640125 C382.813423,373.640125 372.534598,377.883757 366.110332,376.212023 C366.110332,376.212023 374.204907,385.085072 380.500687,385.213667 C380.500687,385.213667 371.763686,389.714488 366.238817,389.071514 C366.238817,389.071514 370.735803,402.059599 376.646128,403.216953 C376.646128,403.216953 368.808523,412.604381 341.312666,388.299944 C332.190208,380.32706 308.291939,382.513174 308.291939,382.513174 C308.291939,382.513174 255.998415,383.541933 234.541368,374.54029 C213.08432,365.538646 180.834505,333.261325 164.002929,317.572747 C147.171352,302.012763 137.406468,290.053437 127.127643,286.70997 C116.848817,283.366502 101.944521,286.324185 86.1408268,263.305697 L76.7613987,257.261736 L92.4366073,255.590003 C92.4366073,255.590003 116.591847,237.586716 132.780997,255.590003 C148.970147,273.593289 154.623501,279.38006 169.656283,275.136428 C169.656283,275.136428 161.304737,257.647521 131.624629,231.542755 C111.580919,215.854177 114.664567,210.453191 112.994258,197.207916 C112.994258,197.207916 105.79908,163.901835 84.7274883,137.925665 C63.7843817,111.820899 86.2693121,120.436758 92.8220633,127.252288 C99.5032997,134.196412 225.290425,216.111367 236.211677,282.080553 C236.211677,282.080553 269.360888,272.30734 284.907612,227.556313 C284.907612,227.556313 293.002187,215.854177 308.54891,205.43799 C320.62653,197.465106 417.761429,134.067817 421.744474,110.27776 C421.744474,110.27776 439.603933,98.8328136 424.05721,127.252288 C424.05721,127.252288 456.178539,122.880061 415.063237,175.732567 Z" fill="#B31F37"></path>
    </g>
</svg>